<?xml version="1.0" encoding="UTF-8"?>
<!-- Generator: Adobe Illustrator 26.5.0, SVG Export Plug-In . SVG Version: 6.00 Build 0)  -->
<svg xmlns="http://www.w3.org/2000/svg" xmlns:xlink="http://www.w3.org/1999/xlink" version="1.1" x="0px" y="0px" viewBox="0 0 792 225" style="enable-background:new 0 0 792 225;" xml:space="preserve">
<style type="text/css">
	.st0{fill:#CA4E2A;}
	.st1{fill:#FFFFFF;}
</style>
<g id="Layer_1">
	<g>
		<path class="st0" d="M166.6,168.3h-29.3l23.5-28.9c0,0,11.9,9.9,12.3,15.5l-7.3,9.3L166.6,168.3z"></path>
		<path class="st0" d="M118.6,168.3H98.2l-3.4-7.7c0,0,11.2-5.5,17.1-10.1c0,0,5,3.7,0.7,10.7C112.6,161.2,118.6,168.3,118.6,168.3z    "></path>
		<path class="st0" d="M244.5,113.9c0,0-3-2.5-5.3-7.6c-0.1-0.1,3-7.9,2.2-11.7c-0.7-3.4,5-5.6,5-5.6s1-4.8-1-5.8    c-0.1,0-4.7-0.5-7.4,1.6c0,0.1-1.9-3.7-11.9-5.3c0,0,0.6-4.1,4.7-6.2c3-1.6,0.2-4.3-0.9-4.6s-8.9-4.3-15.5,7.3c0,0-7.3-0.6-11.7-5    c-4.3-4.3-13.6-17.2-19.7-17.9c-6.1-0.6-12.3-0.6-18.2,6.9c-6,7.6-18,22.6-18,22.6s6.3-15.5,14-22.8c0,0-14.1,4.1-23,10.7    c-8.8,6.6-13.6,10.1-18.4,10.1c-4.7,0-11.2-4.8-14.8-2.7c-3.6,2.1-34.1,22.1-36.7,28.5s-5,21.5-7.8,20.5s-2.9-3.7-4.1-3    c-1.2,0.7-3.5,3.5-0.5,5.2s10.1,0.7,16-12.8c0,0-1.5,18.2,0.4,22.6c1.9,4.3,5,6,1.7,14.4c-3.2,8.4-5.8,14.9-5.8,14.9h25.9    l-4.6-7.6c0,0,19.7-9.1,22.6-13c2.9-4,10.2-20.8,19-22.8c1.6-0.4-4,3.1-6.5,6.6c-2.5,3.5-6.7,14.9-6.7,14.9s17.9,2.1,44.3-9.7    c0,0,7.3,6.8,10.4,11.2c3.1,4.3,6.9,20.3,6.9,20.3h28.5l0.7-2.5c0,0-2-2.6-6.5-4.3s-8.8-7.4-8.9-10.8s0.1-6,2.5-8.9    c2.4-3,8.3-12.2,8.3-22.3c0-0.1,2.4,9.3,19.4,15.9c7.4,3,7.8,3.8,10.2,6.2c-0.1-0.1,11.3-1.9,17.2-16.3c0-0.1,14-4.5,20.1-22.3    C270.8,102.8,253.1,114.1,244.5,113.9z M223.8,114.1c-2.5-1.5-3.1-8.3-3.2-8.3c5.3,6.2,8.4,6.8,8.4,6.8S226.3,115.5,223.8,114.1z"></path>
	</g>
	<g>
		<path class="st1" d="M298.6,75.8H334c26.4,0,46.3,17.4,46.3,45.8s-19.9,45.8-46.3,45.8h-35.4V75.8z M331.3,146.6    c14.8,0,24-9.8,24-25c0-15.2-9.2-25-24-25h-8.2v50.1H331.3z"></path>
		<path class="st1" d="M433.2,168.6c-25.7,0-47.7-19.4-47.7-47c0-27.6,21.8-46.8,46.3-46.8c19.8,0,31.9,8.3,39.6,19.7l-18.4,12.5    c-3.5-5.4-9.2-10.9-20.7-10.9c-13.5,0-21.7,11.2-21.7,25.6s8.5,25.7,22.5,25.7c11.8,0,17.6-5.4,21.5-12.7l18.8,12.1    C464.4,162,451.7,168.6,433.2,168.6z"></path>
		<path class="st1" d="M535,75.8h26.5l-30.4,39.7l34.1,51.8h-28.9l-21.8-33.2l-7.7,9.4v23.8h-24.5V75.8h24.5v38L535,75.8z"></path>
		<path class="st1" d="M628.1,156.3h-31.9l-4.6,11h-24l44.6-93.1c0.4-0.9,1.2-0.9,1.6,0l44.4,93.1H633L628.1,156.3z M603.8,138.5    h16.6l-8.3-19.4L603.8,138.5z"></path>
		<path class="st1" d="M688.4,167.3h-24.5V75.8h37c23.3,0,36.2,14.1,36.2,32.8c0,18.7-12.9,32.4-36.2,32.4h-12.5V167.3z     M699.8,120.6c8.3,0,12.8-4.4,12.8-12s-4.4-12.1-12.8-12.1h-11.3v24.1H699.8z"></path>
	</g>
</g>
<g id="Layer_2">
</g>
</svg>
